<svg width="29" height="28" viewBox="0 0 29 28" fill="none" xmlns="http://www.w3.org/2000/svg">
<path d="M0.357422 14C0.357422 6.26801 6.67648 0 14.4085 0C22.1404 0 28.4595 6.26801 28.4595 14C28.4595 21.732 22.1404 28 14.4085 28C6.67648 28 0.357422 21.732 0.357422 14Z" fill="#ECEAF7"/>
<g clip-path="url(#clip0_849_362)">
<path d="M22.9378 10.4676C22.8357 10.0864 22.6353 9.73873 22.3568 9.45919C22.0782 9.17966 21.7312 8.97809 21.3504 8.87462C19.9509 8.5 14.3349 8.5 14.3349 8.5C14.3349 8.5 8.72117 8.5 7.31942 8.87462C6.93847 8.97819 6.59137 9.17993 6.31281 9.45967C6.03426 9.73941 5.834 10.0874 5.73205 10.4688C5.35742 11.8705 5.35742 14.8 5.35742 14.8C5.35742 14.8 5.35742 17.7295 5.73205 19.1324C5.9368 19.9064 6.54542 20.5161 7.31942 20.7242C8.7223 21.1 14.3349 21.1 14.3349 21.1C14.3349 21.1 19.9509 21.1 21.3504 20.7254C21.7312 20.6219 22.0782 20.4203 22.3568 20.1408C22.6353 19.8613 22.8357 19.5136 22.9378 19.1324C23.3124 17.7295 23.3124 14.8 23.3124 14.8C23.3124 14.8 23.3124 11.8705 22.9378 10.4676Z" fill="#033E8A"/>
<path d="M12.5417 17.4996L17.2059 14.7996L12.5417 12.0996V17.4996Z" fill="white"/>
</g>
<defs>
<clipPath id="clip0_849_362">
<rect width="18" height="18" fill="white" transform="translate(5.35742 6.25)"/>
</clipPath>
</defs>
</svg>
