<svg width="29" height="28" viewBox="0 0 29 28" fill="none" xmlns="http://www.w3.org/2000/svg">
<path d="M0.714722 14C0.714722 6.26801 7.03378 0 14.7658 0C22.4977 0 28.8168 6.26801 28.8168 14C28.8168 21.732 22.4977 28 14.7658 28C7.03378 28 0.714722 21.732 0.714722 14Z" fill="#ECEAF7"/>
<path d="M12.0935 15.2567C12.0934 14.9118 12.1613 14.5702 12.2932 14.2514C12.4252 13.9327 12.6186 13.6431 12.8625 13.3991C13.1063 13.1551 13.3959 12.9616 13.7146 12.8295C14.0332 12.6974 14.3748 12.6294 14.7198 12.6293C15.0648 12.6292 15.4064 12.6971 15.7251 12.8291C16.0438 12.961 16.3335 13.1544 16.5774 13.3983C16.8214 13.6422 17.015 13.9317 17.147 14.2504C17.2791 14.5691 17.3471 14.9107 17.3472 15.2556C17.3474 15.9523 17.0708 16.6205 16.5782 17.1133C16.0857 17.606 15.4176 17.8829 14.7209 17.8831C14.0242 17.8832 13.356 17.6066 12.8633 17.1141C12.3705 16.6215 12.0936 15.9534 12.0935 15.2567ZM10.6737 15.2567C10.6736 15.7882 10.7782 16.3144 10.9815 16.8054C11.1848 17.2964 11.4828 17.7425 11.8586 18.1183C12.2343 18.4941 12.6803 18.7923 13.1713 18.9957C13.6622 19.1991 14.1884 19.3039 14.7198 19.3039C15.2512 19.304 15.7774 19.1994 16.2684 18.9961C16.7594 18.7928 17.2055 18.4948 17.5813 18.1191C17.9572 17.7434 18.2553 17.2973 18.4587 16.8064C18.6622 16.3155 18.7669 15.7893 18.767 15.2579C18.767 14.1846 18.3406 13.1554 17.5817 12.3965C16.8229 11.6376 15.7936 11.2112 14.7203 11.2112C13.6471 11.2112 12.6178 11.6376 11.859 12.3965C11.1001 13.1554 10.6737 14.1846 10.6737 15.2579V15.2567ZM17.9806 11.0492C17.9806 11.2362 18.036 11.4189 18.1399 11.5743C18.2437 11.7297 18.3913 11.8508 18.564 11.9223C18.7366 11.9938 18.9266 12.0126 19.11 11.9761C19.2933 11.9396 19.4617 11.8496 19.5938 11.7175C19.726 11.5853 19.816 11.4169 19.8524 11.2336C19.8889 11.0503 19.8702 10.8603 19.7987 10.6876C19.7271 10.5149 19.606 10.3673 19.4506 10.2635C19.2952 10.1597 19.1125 10.1043 18.9256 10.1043C18.675 10.1043 18.4346 10.2038 18.2574 10.381C18.0802 10.5583 17.9806 10.7986 17.9806 11.0492ZM11.5355 21.6726C10.7682 21.6377 10.3497 21.5095 10.073 21.4026C9.73045 21.2759 9.42063 21.0741 9.16622 20.812C8.90427 20.5582 8.7028 20.2487 8.57672 19.9064C8.46872 19.6285 8.34047 19.2111 8.30672 18.4427C8.26735 17.6114 8.2606 17.3627 8.2606 15.2567C8.2606 13.153 8.26847 12.9033 8.3056 12.0719C8.34047 11.3035 8.46985 10.8861 8.57672 10.6083C8.72072 10.2404 8.89172 9.97825 9.16622 9.7015C9.44185 9.42588 9.70397 9.25487 10.073 9.112C10.3497 9.004 10.7682 8.87575 11.5355 8.84087C12.3668 8.80262 12.6155 8.79588 14.7192 8.79588C16.823 8.79588 17.0727 8.80262 17.903 8.84087C18.6725 8.87575 19.0887 9.00512 19.3666 9.11088C19.7356 9.25487 19.9966 9.42588 20.2733 9.7015C20.549 9.97713 20.72 10.2404 20.8628 10.6083C20.9708 10.885 21.0991 11.3035 21.134 12.0707C21.1722 12.9032 21.179 13.1519 21.179 15.2567C21.179 17.3616 21.1722 17.6103 21.134 18.4427C21.0991 19.2111 20.9708 19.6285 20.8628 19.9052C20.7366 20.2478 20.5352 20.5576 20.2733 20.812C20.0189 21.0737 19.709 21.2751 19.3666 21.4015C19.0898 21.5095 18.6725 21.6377 17.9041 21.6726C17.0727 21.7109 16.8241 21.7176 14.7203 21.7176C12.6155 21.7176 12.3668 21.7109 11.5366 21.6726H11.5355ZM11.4713 7.42225C10.6321 7.4605 10.0583 7.59438 9.55885 7.789C9.04022 7.99038 8.60035 8.26038 8.16272 8.698C7.72397 9.13675 7.45397 9.5755 7.25372 10.0941C7.0591 10.5948 6.92522 11.1685 6.88697 12.0066C6.84872 12.8481 6.83972 13.117 6.83972 15.2579C6.83972 17.3976 6.84872 17.6654 6.88697 18.5069C6.92522 19.3461 7.0591 19.9188 7.25372 20.4194C7.4551 20.938 7.72397 21.3779 8.16272 21.8155C8.60147 22.2543 9.04022 22.5243 9.55772 22.7256C10.0595 22.9203 10.6321 23.053 11.4702 23.0913C12.3117 23.1295 12.5795 23.1385 14.7192 23.1385C16.859 23.1385 17.1278 23.1295 17.9682 23.0913C18.8075 23.053 19.3801 22.9203 19.8807 22.7256C20.3982 22.5231 20.837 22.2531 21.2757 21.8155C21.7145 21.3779 21.9845 20.938 22.1858 20.4205C22.3805 19.9187 22.5143 19.3461 22.5515 18.5069C22.5897 17.6654 22.5987 17.3976 22.5987 15.2567C22.5987 13.117 22.5897 12.8481 22.5515 12.0078C22.5132 11.1685 22.3805 10.5947 22.1858 10.0952C21.9877 9.56911 21.6775 9.09235 21.2768 8.698C20.8381 8.25925 20.3993 7.98925 19.8818 7.789C19.3801 7.59438 18.8063 7.4605 17.9693 7.42225C17.129 7.384 16.859 7.375 14.7203 7.375C12.5817 7.375 12.3117 7.384 11.4713 7.42225Z" fill="#033E8A"/>
</svg>
