<svg width="29" height="28" viewBox="0 0 29 28" fill="none" xmlns="http://www.w3.org/2000/svg">
<path d="M0.536072 14C0.536072 6.26801 6.85513 0 14.5871 0C22.3191 0 28.6382 6.26801 28.6382 14C28.6382 21.732 22.3191 28 14.5871 28C6.85513 28 0.536072 21.732 0.536072 14Z" fill="#ECEAF7"/>
<path fill-rule="evenodd" clip-rule="evenodd" d="M22.6163 20L16.3364 12.4234L16.3471 12.4305L22.0093 7H20.1172L15.5046 11.42L11.8417 7H6.87923L12.742 14.0738L12.7413 14.0732L6.55792 20H8.45008L13.5782 15.0825L17.6538 20H22.6163ZM11.0919 8.18181L19.903 18.8182H18.4035L9.58539 8.18181H11.0919Z" fill="#033E8A"/>
</svg>
