<svg width="29" height="28" viewBox="0 0 29 28" fill="none" xmlns="http://www.w3.org/2000/svg">
<path d="M0 14C0 6.26801 6.31906 0 14.051 0C21.783 0 28.1021 6.26801 28.1021 14C28.1021 21.732 21.783 28 14.051 28C6.31906 28 0 21.732 0 14Z" fill="#ECEAF7"/>
<path d="M17.4481 16.2423L17.8981 13.3904H15.1317V11.5364C15.1317 10.7567 15.5176 9.99513 16.7517 9.99513H18.0264V7.56625C17.2843 7.44803 16.5345 7.38411 15.7831 7.375C13.5084 7.375 12.0223 8.743 12.0223 11.2157V13.3904H9.5V16.2423H12.0223V23.1385H15.1329V16.2423H17.4481Z" fill="#033E8A"/>
</svg>
