<svg width="29" height="28" viewBox="0 0 29 28" fill="none" xmlns="http://www.w3.org/2000/svg">
<path d="M0.893311 14C0.893311 6.26801 7.21237 0 14.9444 0C22.6763 0 28.9954 6.26801 28.9954 14C28.9954 21.732 22.6763 28 14.9444 28C7.21237 28 0.893311 21.732 0.893311 14Z" fill="#ECEAF7"/>
<path d="M21.5758 11.3106C19.5227 12.9396 17.4729 14.5686 15.4198 16.1965C15.0936 16.4518 14.8888 16.4518 14.5671 16.192L7.64044 10.6963C7.44262 10.5409 7.24349 10.3871 7.04306 10.2351C7.02619 10.2846 7.01831 10.3015 7.01831 10.3172V19.6142C7.01831 19.6311 7.02281 19.648 7.02281 19.6637C7.03856 19.8988 7.16681 20.0428 7.38956 20.0923C7.50094 20.1171 7.61569 20.1261 7.73156 20.1261H22.2643C22.8324 20.1261 22.9731 19.9855 22.9731 19.4162V10.2148C22.4702 10.6018 22.0202 10.9573 21.5758 11.3106Z" fill="#033E8A"/>
<path d="M21.8391 9.625H8.14783C10.4563 11.4588 12.7243 13.2565 14.9957 15.0633C17.2671 13.2565 19.5261 11.4588 21.8391 9.625Z" fill="#033E8A"/>
</svg>
