<svg width="29" height="28" viewBox="0 0 29 28" fill="none" xmlns="http://www.w3.org/2000/svg">
<path d="M0.178772 14C0.178772 6.26801 6.49783 0 14.2298 0C21.9618 0 28.2809 6.26801 28.2809 14C28.2809 21.732 21.9618 28 14.2298 28C6.49783 28 0.178772 21.732 0.178772 14Z" fill="#ECEAF7"/>
<path fill-rule="evenodd" clip-rule="evenodd" d="M21.0351 6.42997C21.2832 6.32596 21.5546 6.29008 21.8213 6.32608C22.0879 6.36208 22.34 6.46863 22.5513 6.63465C22.7626 6.80067 22.9254 7.02008 23.0227 7.27005C23.1201 7.52002 23.1483 7.79141 23.1047 8.05597L20.8284 21.813C20.6076 23.14 19.1463 23.901 17.9249 23.24C16.9031 22.687 15.3856 21.835 14.0207 20.946C13.3382 20.501 11.2476 19.076 11.5045 18.062C11.7253 17.195 15.2381 13.937 17.2454 12C18.0332 11.239 17.6739 10.8 16.7436 11.5C14.4332 13.238 10.7237 15.881 9.49724 16.625C8.41531 17.281 7.85126 17.393 7.17681 17.281C5.94634 17.077 4.80519 16.761 3.87381 16.376C2.61524 15.856 2.67646 14.132 3.87281 13.63L21.0351 6.42997Z" fill="#033E8A"/>
</svg>
