<svg width="32" height="32" viewBox="0 0 32 32" fill="none" xmlns="http://www.w3.org/2000/svg">
<path d="M21.7444 5.84558C20.9564 5.84558 20.5623 5.84558 20.2033 5.71239C20.1535 5.69389 20.1044 5.67354 20.056 5.65137C19.708 5.49173 19.4295 5.21311 18.8721 4.65589C17.5896 3.37335 16.9484 2.73209 16.1593 2.67295C16.0533 2.66501 15.9467 2.66501 15.8407 2.67295C15.0516 2.73209 14.4103 3.37335 13.1278 4.65587C12.5706 5.21311 12.292 5.49173 11.944 5.65137C11.8956 5.67354 11.8465 5.69389 11.7966 5.71239C11.4377 5.84558 11.0436 5.84558 10.2556 5.84558H10.1103C8.09971 5.84558 7.09444 5.84558 6.46986 6.47018C5.84526 7.09477 5.84526 8.10003 5.84526 10.1106V10.2559C5.84526 11.044 5.84526 11.438 5.71207 11.797C5.69356 11.8468 5.67322 11.896 5.65104 11.9443C5.4914 12.2923 5.21279 12.5709 4.65555 13.1281C3.37303 14.4106 2.73177 15.0519 2.67263 15.841C2.66469 15.947 2.66469 16.0537 2.67263 16.1597C2.73177 16.9487 3.37303 17.5899 4.65555 18.8725C5.21279 19.4298 5.4914 19.7083 5.65104 20.0563C5.67322 20.1047 5.69356 20.1538 5.71207 20.2037C5.84526 20.5626 5.84526 20.9567 5.84526 21.7447V21.8901C5.84526 23.9006 5.84526 24.9059 6.46986 25.5305C7.09444 26.1551 8.09971 26.1551 10.1103 26.1551H10.2556C11.0436 26.1551 11.4377 26.1551 11.7966 26.2882C11.8465 26.3067 11.8956 26.3271 11.944 26.3493C12.292 26.509 12.5706 26.7875 13.1278 27.3447C14.4103 28.6273 15.0516 29.2686 15.8407 29.3277C15.9467 29.3357 16.0533 29.3357 16.1593 29.3277C16.9484 29.2686 17.5896 28.6273 18.8721 27.3447C19.4295 26.7875 19.708 26.509 20.056 26.3493C20.1044 26.3271 20.1535 26.3067 20.2033 26.2882C20.5623 26.1551 20.9564 26.1551 21.7444 26.1551H21.8897C23.9003 26.1551 24.9056 26.1551 25.5301 25.5305C26.1548 24.9059 26.1548 23.9006 26.1548 21.8901V21.7447C26.1548 20.9567 26.1548 20.5626 26.2879 20.2037C26.3064 20.1538 26.3268 20.1047 26.3489 20.0563C26.5087 19.7083 26.7872 19.4298 27.3444 18.8725C28.6269 17.5899 29.2683 16.9487 29.3273 16.1597C29.3353 16.0537 29.3353 15.947 29.3273 15.841C29.2683 15.0519 28.6269 14.4106 27.3444 13.1281C26.7872 12.5709 26.5087 12.2923 26.3489 11.9443C26.3268 11.896 26.3064 11.8468 26.2879 11.797C26.1548 11.438 26.1548 11.044 26.1548 10.2559V10.1106C26.1548 8.10003 26.1548 7.09477 25.5301 6.47018C24.9056 5.84558 23.9003 5.84558 21.8897 5.84558H21.7444Z" stroke="white" stroke-width="2"/>
<path d="M11.3333 22.0003C12.2648 20.39 14.0059 19.3066 16 19.3066C17.9941 19.3066 19.7352 20.39 20.6667 22.0003M18.6667 13.3336C18.6667 14.8064 17.4728 16.0003 16 16.0003C14.5273 16.0003 13.3333 14.8064 13.3333 13.3336C13.3333 11.8609 14.5273 10.667 16 10.667C17.4728 10.667 18.6667 11.8609 18.6667 13.3336Z" stroke="white" stroke-width="2" stroke-linecap="round"/>
</svg>
