<svg width="32" height="32" viewBox="0 0 32 32" fill="none" xmlns="http://www.w3.org/2000/svg">
<path d="M17.3333 29.3336H8.78782C6.72732 29.3336 5.08841 28.331 3.61688 26.9291C0.604486 24.0591 5.5504 21.7656 7.43676 20.6424C10.0408 19.0919 13.0569 18.4542 16 18.7291" stroke="white" stroke-width="2" stroke-linecap="round" stroke-linejoin="round"/>
<path d="M20.6667 8.66699C20.6667 11.9807 17.9804 14.667 14.6667 14.667C11.353 14.667 8.66667 11.9807 8.66667 8.66699C8.66667 5.35329 11.353 2.66699 14.6667 2.66699C17.9804 2.66699 20.6667 5.35329 20.6667 8.66699Z" stroke="white" stroke-width="2"/>
<path d="M27.2 27.2003L29.3333 29.3337M28.2667 23.467C28.2667 20.8161 26.1176 18.667 23.4667 18.667C20.8157 18.667 18.6667 20.8161 18.6667 23.467C18.6667 26.1179 20.8157 28.267 23.4667 28.267C26.1176 28.267 28.2667 26.1179 28.2667 23.467Z" stroke="white" stroke-width="2" stroke-linecap="round" stroke-linejoin="round"/>
</svg>
