<svg width="32" height="32" viewBox="0 0 32 32" fill="none" xmlns="http://www.w3.org/2000/svg">
<path d="M16.6667 29.3336H8.78783C6.72733 29.3336 5.08842 28.331 3.61689 26.9291C0.604493 24.0591 5.55041 21.7656 7.43677 20.6424C10.2378 18.9746 13.5157 18.3628 16.6667 18.8072C17.81 18.9684 18.9235 19.2688 20 19.7082" stroke="white" stroke-width="2" stroke-linecap="round" stroke-linejoin="round"/>
<path d="M22 8.66699C22 11.9807 19.3137 14.667 16 14.667C12.6863 14.667 10 11.9807 10 8.66699C10 5.35329 12.6863 2.66699 16 2.66699C19.3137 2.66699 22 5.35329 22 8.66699Z" stroke="white" stroke-width="2"/>
<path d="M24.6667 29.3333V20M20 24.6667H29.3333" stroke="white" stroke-width="2" stroke-linecap="round"/>
</svg>
